<svg xmlns="http://www.w3.org/2000/svg" width="500" height="500" style="width:100%;height:100%"><defs><clipPath id="b"><path d="M0 0h500v500H0z"/></clipPath><filter id="a" filterUnits="objectBoundingBox" x="0%" y="0%" width="100%" height="100%"><feComponentTransfer in="SourceGraphic"><feFuncA type="table" tableValues="1.0 0.0"/></feComponentTransfer></filter><mask id="c"><g filter="url(#a)"><path fill="#FFF" d="M108.831-10.711l-2.039 12.436a11.808 11.808 0 01-10.414 9.831l-21.199 2.231-50.005 10.909c-7.989 16.76-28.887 32.336-49.658 44.536l-3.239 45.674-2.75 38.774 24.21 27.204h-61.381l-2.469-21.482-3.638-31.657-4.348-37.837s-54.112 21.521-94.976 18.487l-5.047 45.984 24.199 27.214h-61.37l-2.983-28.837-5.68-54.93c-3.396-32.85-6.503-62.912-6.532-63.247-4.888-58.746 45.266-88.829 115.26-100.859 32.939-5.661 64.291-2.984 89.04 5.989h.011a141.5 141.5 0 0019.998 1.216 8.077 8.077 0 01-.222-.676C-9.755-70.957-5.057-82.269 4.085-85.009c9.153-2.74 19.289 4.127 22.654 15.333a25.883 25.883 0 011.079 7.216c1.543-.172 3.263-.211 5.106-.131 19.205.835 35.713 13.937 41.576 32.244l.15.47 25.16 5.747c6.079 1.389 10.03 7.266 9.021 13.419z" transform="matrix(.7 0 0 .7 292.64 216.525)" display="block"/></g></mask></defs><g clip-path="url(#b)"><g mask="url(#c)" display="block"><path stroke-linecap="round" stroke-linejoin="round" stroke="#A866ED" stroke-width="5.0568" d="M305.941 232.158l-4.388 55.244-2.878 36.24 16.946 19.043h-42.966l-1.532-13.33-3.737-32.522-4.918-42.802" fill="none"/></g><path stroke-linecap="round" stroke-linejoin="round" stroke="#A866ED" stroke-width="5.0568" d="M196.357 290.88l-3.066 33.384 16.946 19.043-27.217-.144" fill="none" display="block"/><g display="block"><path stroke-linecap="round" stroke-linejoin="round" stroke="#A866ED" stroke-width="5.0568" d="M310.262 233.812l-4.112-.723c-16.296-2.867-28.933-15.97-30.984-32.39-.117-.937-.148-1.462-.148-1.462m93.803 9.79l-1.427 8.705a8.265 8.265 0 01-7.29 6.882l-14.839 1.561-35.003 7.637c-5.593 11.732-20.221 22.635-34.761 31.175l-2.267 31.972-1.925 27.142 16.947 19.042h-42.967l-1.728-15.037-2.547-22.16-3.044-26.486s-37.878 15.065-66.483 12.941l-3.533 32.189 16.94 19.05h-42.96l-2.087-20.186-3.976-38.451a90448.939 90448.939 0 01-4.573-44.273c-3.421-41.122 31.686-62.18 80.682-70.601 23.057-3.963 45.004-2.09 62.328 4.192h.008a99.05 99.05 0 0013.998.851 5.654 5.654 0 01-.155-.473c-2.348-7.844.94-15.763 7.34-17.68 6.407-1.919 13.503 2.888 15.858 10.732.504 1.703.748 3.407.755 5.052 1.08-.12 2.284-.148 3.575-.092 13.443.584 24.999 9.756 29.103 22.57l.105.33 17.612 4.023a8.264 8.264 0 016.314 9.393zm-44.365-16.36s0 0 0 0" fill="none"/><path stroke-linecap="round" stroke-linejoin="round" stroke="#B4B4B4" stroke-width="5.0568" d="M368.932 206.644h-9.135" fill="none"/></g></g></svg>